<svg width="800" height="800" viewBox="0 0 800 800" fill="none" xmlns="http://www.w3.org/2000/svg">
<path d="M64.634 435.33C45.122 415.818 45.122 384.182 64.634 364.67L364.67 64.634C384.182 45.122 415.818 45.122 435.33 64.634L735.365 364.67C754.878 384.182 754.878 415.818 735.365 435.33L435.33 735.365C415.818 754.878 384.182 754.878 364.67 735.365L64.634 435.33Z" fill="#EE513B"/>
<path d="M303.726 126.537L273.344 156.921L351.816 235.393C348.641 242.204 346.869 249.799 346.869 257.809C346.869 280.549 361.156 299.952 381.244 307.529V499.494C361.156 507.072 346.869 526.474 346.869 549.214C346.869 578.554 370.654 602.339 399.994 602.339C429.334 602.339 453.119 578.554 453.119 549.214C453.119 528.599 441.376 510.724 424.214 501.919V307.792L499.226 382.804C496.206 389.477 494.526 396.884 494.526 404.684C494.526 434.024 518.311 457.809 547.651 457.809C576.991 457.809 600.776 434.024 600.776 404.684C600.776 375.344 576.991 351.559 547.651 351.559C541.949 351.559 536.459 352.457 531.309 354.119L450.746 273.557C452.289 268.582 453.119 263.292 453.119 257.809C453.119 228.469 429.334 204.684 399.994 204.684C394.511 204.684 389.224 205.514 384.246 207.057L303.726 126.537Z" fill="white"/>
</svg>
