<svg width="800" height="800" viewBox="0 0 800 800" fill="none" xmlns="http://www.w3.org/2000/svg">
<path d="M750 50H50V750H750V50Z" fill="#F5DE19"/>
<path d="M520.222 596.876C526.186 608.991 535.452 619.174 546.953 626.251C558.453 633.328 571.719 637.011 585.222 636.876C612.472 636.876 629.897 623.251 629.897 604.376C629.897 581.876 611.997 573.826 581.997 560.701L565.547 553.651C518.047 533.426 486.547 508.101 486.547 454.551C486.547 405.226 524.047 367.651 582.872 367.651C601.915 366.276 620.941 370.538 637.577 379.905C654.213 389.272 667.723 403.331 676.422 420.326L624.997 453.201C621.647 444.774 615.815 437.564 608.274 432.528C600.733 427.492 591.839 424.867 582.772 425.001C578.816 424.605 574.821 425.037 571.041 426.271C567.262 427.504 563.78 429.511 560.819 432.164C557.858 434.817 555.482 438.058 553.843 441.68C552.203 445.302 551.336 449.225 551.297 453.201C551.297 472.926 563.522 480.926 591.747 493.201L608.197 500.251C664.097 524.226 695.697 548.651 695.697 603.576C695.697 662.801 649.172 695.251 586.697 695.251C562.354 696.802 538.083 691.275 516.812 679.338C495.541 667.4 478.179 649.562 466.822 627.976L520.222 596.876ZM287.847 602.576C298.172 620.901 307.572 636.401 330.172 636.401C351.772 636.401 365.422 627.951 365.422 595.076V371.401H431.197V595.951C431.197 664.051 391.197 695.051 332.972 695.051C312.391 696.176 291.951 691.047 274.339 680.338C256.727 669.629 242.768 653.842 234.297 635.051L287.847 602.576Z" fill="black"/>
</svg>
