<svg width="800" height="800" viewBox="0 0 800 800" fill="none" xmlns="http://www.w3.org/2000/svg">
<path d="M657.761 274.449C649.462 271.592 640.862 268.89 632.008 266.334C633.463 260.394 634.799 254.532 635.986 248.769C655.481 154.14 642.735 77.907 599.21 52.8078C557.476 28.7409 489.223 53.8345 420.29 113.824C413.662 119.593 407.015 125.7 400.37 132.101C395.943 127.866 391.523 123.774 387.114 119.859C314.871 55.7142 242.458 28.6826 198.977 53.8544C157.282 77.991 144.935 149.658 162.483 239.338C164.177 248 166.158 256.846 168.398 265.839C158.15 268.749 148.256 271.85 138.789 275.149C54.0917 304.679 0 350.958 0 398.962C0 448.542 58.0674 498.27 146.286 528.423C153.248 530.803 160.472 533.052 167.917 535.188C165.5 544.916 163.398 554.448 161.634 563.745C144.902 651.869 157.969 721.842 199.552 745.826C242.504 770.595 314.589 745.136 384.782 683.779C390.33 678.929 395.897 673.785 401.475 668.394C408.705 675.356 415.923 681.945 423.103 688.125C491.093 746.632 558.244 770.258 599.789 746.207C642.698 721.366 656.643 646.198 638.538 554.744C637.155 547.759 635.546 540.624 633.739 533.361C638.802 531.865 643.771 530.32 648.617 528.714C740.329 498.327 800 449.204 800 398.962C800 350.785 744.164 304.193 657.761 274.449ZM637.869 496.274C633.494 497.722 629.006 499.122 624.432 500.479C614.308 468.426 600.643 434.343 583.921 399.129C599.878 364.754 613.015 331.107 622.856 299.262C631.039 301.63 638.982 304.128 646.636 306.763C720.667 332.249 765.824 369.929 765.824 398.962C765.824 429.889 717.055 470.035 637.869 496.274ZM605.012 561.381C613.017 601.821 614.161 638.384 608.858 666.966C604.093 692.649 594.511 709.772 582.664 716.63C557.452 731.223 503.537 712.254 445.391 662.218C438.725 656.482 432.011 650.358 425.276 643.876C447.818 619.222 470.346 590.562 492.334 558.731C531.008 555.299 567.547 549.689 600.681 542.029C602.313 548.612 603.763 555.069 605.012 561.381ZM272.738 714.108C248.106 722.808 228.488 723.057 216.629 716.219C191.394 701.664 180.904 645.482 195.213 570.119C196.852 561.488 198.803 552.622 201.052 543.56C233.823 550.807 270.094 556.021 308.86 559.164C330.996 590.311 354.176 618.94 377.535 644.008C372.432 648.935 367.348 653.626 362.293 658.046C331.254 685.177 300.15 704.427 272.738 714.108ZM157.339 496.084C118.331 482.751 86.1158 465.423 64.0339 446.514C44.1921 429.521 34.1743 412.651 34.1743 398.962C34.1743 369.832 77.6046 332.676 150.039 307.421C158.827 304.357 168.028 301.469 177.576 298.756C187.586 331.32 200.718 365.366 216.566 399.794C200.513 434.733 187.195 469.322 177.086 502.267C170.279 500.311 163.685 498.252 157.339 496.084ZM196.022 232.774C180.988 155.939 190.973 97.9767 216.099 83.4321C242.863 67.9377 302.045 90.0294 364.422 145.416C368.409 148.956 372.412 152.661 376.426 156.494C353.182 181.452 330.215 209.867 308.275 240.83C270.651 244.317 234.635 249.919 201.522 257.421C199.44 249.046 197.596 240.819 196.022 232.774ZM541.106 317.984C533.19 304.311 525.063 290.961 516.779 277.976C542.304 281.203 566.759 285.486 589.725 290.728C582.83 312.825 574.236 335.93 564.12 359.615C556.864 345.838 549.189 331.947 541.106 317.984ZM400.382 180.918C416.145 197.996 431.932 217.064 447.459 237.751C431.812 237.012 415.971 236.628 400 236.628C384.179 236.628 368.456 237.004 352.906 237.73C368.449 217.234 384.372 198.193 400.382 180.918ZM258.756 318.221C250.849 331.932 243.316 345.748 236.173 359.589C226.221 335.987 217.707 312.777 210.752 290.366C233.577 285.258 257.917 281.082 283.28 277.916C274.878 291.021 266.685 304.472 258.756 318.221ZM284.01 522.447C257.806 519.523 233.1 515.562 210.28 510.595C217.346 487.784 226.048 464.079 236.211 439.968C243.373 453.799 250.935 467.62 258.891 481.362C266.995 495.361 275.392 509.074 284.01 522.447ZM401.327 619.416C385.129 601.939 368.973 582.607 353.193 561.813C368.511 562.414 384.128 562.721 400 562.721C416.306 562.721 432.426 562.354 448.292 561.648C432.713 582.817 416.984 602.179 401.327 619.416ZM564.447 438.739C575.139 463.11 584.153 486.692 591.31 509.114C568.115 514.405 543.071 518.667 516.685 521.834C524.989 508.674 533.187 495.095 541.243 481.127C549.392 466.995 557.13 452.842 564.447 438.739ZM511.639 464.053C499.134 485.736 486.295 506.435 473.261 525.974C449.522 527.671 424.997 528.546 400 528.546C375.104 528.546 350.888 527.772 327.569 526.259C314.01 506.464 300.892 485.703 288.466 464.24C276.073 442.834 264.67 421.248 254.334 399.783C264.667 378.268 276.043 356.657 288.365 335.29L288.362 335.295C300.717 313.871 313.719 293.211 327.153 273.54C350.945 271.742 375.342 270.803 399.999 270.803C424.766 270.803 449.196 271.749 472.981 273.563C486.21 293.09 499.124 313.683 511.527 335.109C524.071 356.777 535.594 378.243 546.014 399.297C535.625 420.712 524.128 442.396 511.639 464.053ZM582.14 82.4154C608.929 97.8642 619.347 160.169 602.515 241.871C601.442 247.084 600.233 252.394 598.92 257.775C565.73 250.117 529.688 244.418 491.954 240.878C469.972 209.575 447.192 181.116 424.327 156.478C430.475 150.565 436.614 144.926 442.727 139.604C501.788 88.2053 556.989 67.912 582.14 82.4154ZM400 327.525C439.453 327.525 471.437 359.508 471.437 398.962C471.437 438.416 439.453 470.4 400 470.4C360.547 470.4 328.563 438.416 328.563 398.962C328.563 359.508 360.547 327.525 400 327.525Z" fill="#00D8FF"/>
</svg>
