<svg width="800" height="800" viewBox="0 0 800 800" fill="none" xmlns="http://www.w3.org/2000/svg">
<g clip-path="url(#clip0_1427_992)">
<path d="M0 400V0H800V800H0" fill="#007ACC"/>
<path d="M175.398 401.4V434H279.398V730H353.198V434H457.198V402C457.198 384 457.198 369.4 456.398 369C456.398 368.4 392.998 368.2 315.998 368.2L175.998 368.8V401.6L175.398 401.4ZM642.798 368C663.198 372.8 678.798 382 692.798 396.6C700.198 404.6 711.198 418.6 711.998 422.2C711.998 423.4 677.398 446.8 656.398 459.8C655.598 460.4 652.398 457 649.198 451.8C638.798 437 628.198 430.6 611.598 429.4C587.598 427.8 571.598 440.4 571.598 461.4C571.598 467.8 572.798 471.4 575.198 476.6C580.598 487.6 590.598 494.2 621.598 507.8C678.798 532.4 703.598 548.6 718.598 571.8C735.598 597.8 739.398 638.6 727.998 669.2C715.198 702.6 683.998 725.2 639.398 732.6C625.398 735 593.398 734.6 578.398 732C546.398 726 515.798 710 496.998 689.4C489.598 681.4 475.398 660 476.198 658.6L483.798 653.8L513.798 636.4L536.398 623.2L541.598 630.2C548.198 640.6 562.998 654.6 571.598 659.4C597.598 672.8 632.398 671 649.598 655.4C656.998 648.6 660.198 641.4 660.198 631.4C660.198 622.2 658.798 618 654.198 611C647.798 602.2 634.998 595 598.998 579C557.598 561.4 539.998 550.2 523.598 533C514.198 522.6 505.598 506.4 501.598 493C498.598 481.4 497.598 453 500.398 441.6C508.998 401.6 539.198 373.6 582.398 365.6C596.398 362.8 629.398 364 643.198 367.6L642.798 368Z" fill="white"/>
</g>
<defs>
<clipPath id="clip0_1427_992">
<rect width="800" height="800" fill="white"/>
</clipPath>
</defs>
</svg>
