<svg width="800" height="800" viewBox="0 0 800 800" fill="none" xmlns="http://www.w3.org/2000/svg">
<path d="M400 750C593.3 750 750 593.3 750 400C750 206.7 593.3 50 400 50C206.7 50 50 206.7 50 400C50 593.3 206.7 750 400 750Z" fill="#028CB0"/>
<path d="M161.384 400C161.384 494.557 216.384 576 295.922 614.712L182.115 302.905C168.449 333.45 161.385 366.537 161.384 400ZM400 638.615C427.713 638.615 454.365 633.75 479.327 625.077L477.635 621.905L404.23 420.942L332.73 628.885C353.885 635.23 376.52 638.615 400 638.615ZM432.788 288.095L519.095 544.693L543 465.155C553.155 432.155 560.98 408.463 560.98 387.943C560.98 358.328 550.405 338.02 541.52 322.365C529.25 302.48 518.038 285.77 518.038 266.307C518.038 244.308 534.538 224 558.23 224H561.193C517.225 183.637 459.685 161.285 400 161.384C360.48 161.377 321.58 171.194 286.795 189.952C252.012 208.711 222.437 235.821 200.731 268.845L215.962 269.27C240.923 269.27 279.422 266.095 279.422 266.095C292.537 265.462 294.02 284.288 281.115 285.77C281.115 285.77 268.212 287.462 253.615 288.095L340.77 546.595L393.02 390.057L355.787 288.095C347.45 287.635 339.125 286.93 330.827 285.98C317.922 285.135 319.405 265.462 332.308 266.095C332.308 266.095 371.655 269.27 395.135 269.27C420.095 269.27 458.595 266.095 458.595 266.095C471.5 265.462 473.193 284.288 460.288 285.77C460.288 285.77 447.385 287.25 432.788 288.095ZM519.943 606.25C556.04 585.26 585.997 555.165 606.822 518.972C627.647 482.78 638.61 441.758 638.615 400C638.615 358.538 628.037 319.615 609.422 285.558C613.202 323.028 607.53 360.847 592.922 395.557L519.943 606.25ZM400 675C327.065 675 257.118 646.028 205.546 594.455C153.973 542.883 125 472.935 125 400C125 327.065 153.973 257.118 205.546 205.546C257.118 153.973 327.065 125 400 125C472.935 125 542.883 153.973 594.455 205.546C646.028 257.118 675 327.065 675 400C675 472.935 646.028 542.883 594.455 594.455C542.883 646.028 472.935 675 400 675Z" fill="white"/>
</svg>
